<svg width="385" height="385" viewBox="0 0 385 385" fill="none" xmlns="http://www.w3.org/2000/svg">
<rect width="385" height="385" rx="35" fill="#161616"/>
<path d="M36.3102 226V140.2H130.39V155.8H55.5102V174.76H123.43V190.36H55.5102V210.4H130.39V226H36.3102ZM143.537 226V140.2H157.697L196.097 140.08C211.617 140.08 223.657 143.72 232.217 151C240.777 158.28 245.057 168.96 245.057 183.04C245.057 197.12 240.777 207.8 232.217 215.08C223.657 222.36 211.617 226 196.097 226H143.537ZM194.777 155.68H162.737V210.4H194.777C204.857 210.4 212.497 208.2 217.697 203.8C222.897 199.4 225.497 192.48 225.497 183.04C225.497 173.52 222.897 166.6 217.697 162.28C212.497 157.88 204.857 155.68 194.777 155.68ZM254.331 226.6V211L323.331 211.12C326.851 211.12 329.531 210.32 331.371 208.72C333.291 207.04 334.251 204.36 334.251 200.68C334.251 197 333.291 194.36 331.371 192.76C329.531 191.08 326.851 190.24 323.331 190.24H280.371C271.491 190.24 264.571 188.12 259.611 183.88C254.731 179.56 252.291 173.24 252.291 164.92C252.291 156.6 254.731 150.32 259.611 146.08C264.571 141.76 271.491 139.6 280.371 139.6H347.811V155.2L282.411 155.08C278.971 155.08 276.291 155.88 274.371 157.48C272.451 159 271.491 161.48 271.491 164.92C271.491 168.36 272.451 170.88 274.371 172.48C276.291 174 278.971 174.76 282.411 174.76H325.371C334.251 174.76 341.131 176.96 346.011 181.36C350.971 185.68 353.451 192.12 353.451 200.68C353.451 209.16 350.971 215.6 346.011 220C341.131 224.4 334.251 226.6 325.371 226.6H254.331Z" fill="#002091"/>
<path d="M46.472 244.075C45.132 244.075 44.087 243.745 43.337 243.085C42.587 242.415 42.212 241.435 42.212 240.145C42.212 238.845 42.587 237.865 43.337 237.205C44.087 236.535 45.132 236.2 46.472 236.2H50.222C51.102 236.2 51.772 236.41 52.232 236.83C52.702 237.24 52.937 237.83 52.937 238.6C52.937 240.17 52.032 240.955 50.222 240.955H44.552C44.762 241.885 45.402 242.35 46.472 242.35H52.547V244.075H46.472ZM46.472 237.925C45.442 237.925 44.807 238.36 44.567 239.23H50.117C50.317 239.23 50.472 239.17 50.582 239.05C50.702 238.93 50.762 238.765 50.762 238.555C50.762 238.135 50.547 237.925 50.117 237.925H46.472ZM54.2894 244V236.275H61.0244C61.9044 236.275 62.5444 236.495 62.9444 236.935C63.3544 237.365 63.5594 237.935 63.5594 238.645V244H61.3844V238.9C61.3844 238.3 61.0844 238 60.4844 238H56.4644V244H54.2894ZM66.9592 247.375V245.65H71.4892C72.0892 245.65 72.3892 245.345 72.3892 244.735V244H69.0892C67.7492 244 66.7042 243.67 65.9542 243.01C65.2042 242.35 64.8292 241.395 64.8292 240.145C64.8292 238.885 65.2042 237.925 65.9542 237.265C66.7042 236.605 67.7492 236.275 69.0892 236.275H74.5642V245.005C74.5642 245.715 74.3592 246.285 73.9492 246.715C73.5392 247.155 72.8992 247.375 72.0292 247.375H66.9592ZM69.0892 242.275H72.3892V238H69.0892C68.4392 238 67.9392 238.18 67.5892 238.54C67.2492 238.89 67.0792 239.425 67.0792 240.145C67.0792 240.855 67.2492 241.39 67.5892 241.75C67.9392 242.1 68.4392 242.275 69.0892 242.275ZM76.2181 244V236.275H78.3931V244H76.2181ZM76.2031 235V233.305H78.4081V235H76.2031ZM80.0413 244V236.275H86.7763C87.6563 236.275 88.2963 236.495 88.6963 236.935C89.1063 237.365 89.3113 237.935 89.3113 238.645V244H87.1363V238.9C87.1363 238.3 86.8363 238 86.2363 238H82.2163V244H80.0413ZM94.8412 244.075C93.5012 244.075 92.4562 243.745 91.7062 243.085C90.9562 242.415 90.5812 241.435 90.5812 240.145C90.5812 238.845 90.9562 237.865 91.7062 237.205C92.4562 236.535 93.5012 236.2 94.8412 236.2H98.5912C99.4712 236.2 100.141 236.41 100.601 236.83C101.071 237.24 101.306 237.83 101.306 238.6C101.306 240.17 100.401 240.955 98.5912 240.955H92.9212C93.1312 241.885 93.7712 242.35 94.8412 242.35H100.916V244.075H94.8412ZM94.8412 237.925C93.8112 237.925 93.1762 238.36 92.9362 239.23H98.4862C98.6862 239.23 98.8412 239.17 98.9512 239.05C99.0712 238.93 99.1312 238.765 99.1312 238.555C99.1312 238.135 98.9162 237.925 98.4862 237.925H94.8412ZM106.618 244.075C105.278 244.075 104.233 243.745 103.483 243.085C102.733 242.415 102.358 241.435 102.358 240.145C102.358 238.845 102.733 237.865 103.483 237.205C104.233 236.535 105.278 236.2 106.618 236.2H110.368C111.248 236.2 111.918 236.41 112.378 236.83C112.848 237.24 113.083 237.83 113.083 238.6C113.083 240.17 112.178 240.955 110.368 240.955H104.698C104.908 241.885 105.548 242.35 106.618 242.35H112.693V244.075H106.618ZM106.618 237.925C105.588 237.925 104.953 238.36 104.713 239.23H110.263C110.463 239.23 110.618 239.17 110.728 239.05C110.848 238.93 110.908 238.765 110.908 238.555C110.908 238.135 110.693 237.925 110.263 237.925H106.618ZM114.436 244V236.275H120.346C121.216 236.275 121.856 236.495 122.266 236.935C122.676 237.365 122.881 237.935 122.881 238.645V240.25H120.676V238.915C120.676 238.315 120.376 238.015 119.776 238.015H116.641V244H114.436ZM124.075 244V236.275H126.25V244H124.075ZM124.06 235V233.305H126.265V235H124.06ZM127.898 244V236.275H134.633C135.513 236.275 136.153 236.495 136.553 236.935C136.963 237.365 137.168 237.935 137.168 238.645V244H134.993V238.9C134.993 238.3 134.693 238 134.093 238H130.073V244H127.898ZM140.568 247.375V245.65H145.098C145.698 245.65 145.998 245.345 145.998 244.735V244H142.698C141.358 244 140.313 243.67 139.563 243.01C138.813 242.35 138.438 241.395 138.438 240.145C138.438 238.885 138.813 237.925 139.563 237.265C140.313 236.605 141.358 236.275 142.698 236.275H148.173V245.005C148.173 245.715 147.968 246.285 147.558 246.715C147.148 247.155 146.508 247.375 145.638 247.375H140.568ZM142.698 242.275H145.998V238H142.698C142.048 238 141.548 238.18 141.198 238.54C140.858 238.89 140.688 239.425 140.688 240.145C140.688 240.855 140.858 241.39 141.198 241.75C141.548 242.1 142.048 242.275 142.698 242.275ZM164.581 244H162.406V233.275H164.581V244ZM164.206 244H159.031C157.691 244 156.646 243.67 155.896 243.01C155.146 242.35 154.771 241.395 154.771 240.145C154.771 238.885 155.146 237.925 155.896 237.265C156.646 236.605 157.691 236.275 159.031 236.275H164.056V238H159.031C158.381 238 157.881 238.18 157.531 238.54C157.191 238.89 157.021 239.425 157.021 240.145C157.021 240.855 157.191 241.39 157.531 241.75C157.881 242.1 158.381 242.275 159.031 242.275H164.206V244ZM170.193 244.075C168.853 244.075 167.808 243.745 167.058 243.085C166.308 242.415 165.933 241.435 165.933 240.145C165.933 238.845 166.308 237.865 167.058 237.205C167.808 236.535 168.853 236.2 170.193 236.2H173.943C174.823 236.2 175.493 236.41 175.953 236.83C176.423 237.24 176.658 237.83 176.658 238.6C176.658 240.17 175.753 240.955 173.943 240.955H168.273C168.483 241.885 169.123 242.35 170.193 242.35H176.268V244.075H170.193ZM170.193 237.925C169.163 237.925 168.528 238.36 168.288 239.23H173.838C174.038 239.23 174.193 239.17 174.303 239.05C174.423 238.93 174.483 238.765 174.483 238.555C174.483 238.135 174.268 237.925 173.838 237.925H170.193ZM180.444 244L177.189 236.275H179.469L181.989 242.26H182.739L185.259 236.275H187.539L184.284 244H180.444ZM192.327 244.075C190.987 244.075 189.942 243.745 189.192 243.085C188.442 242.415 188.067 241.435 188.067 240.145C188.067 238.845 188.442 237.865 189.192 237.205C189.942 236.535 190.987 236.2 192.327 236.2H196.077C196.957 236.2 197.627 236.41 198.087 236.83C198.557 237.24 198.792 237.83 198.792 238.6C198.792 240.17 197.887 240.955 196.077 240.955H190.407C190.617 241.885 191.257 242.35 192.327 242.35H198.402V244.075H192.327ZM192.327 237.925C191.297 237.925 190.662 238.36 190.422 239.23H195.972C196.172 239.23 196.327 239.17 196.437 239.05C196.557 238.93 196.617 238.765 196.617 238.555C196.617 238.135 196.402 237.925 195.972 237.925H192.327ZM200.144 244V233.275H202.319V244H200.144ZM207.927 244.075C206.587 244.075 205.542 243.745 204.792 243.085C204.042 242.415 203.667 241.435 203.667 240.145C203.667 238.845 204.042 237.865 204.792 237.205C205.542 236.535 206.587 236.2 207.927 236.2H210.702C212.042 236.2 213.087 236.535 213.837 237.205C214.587 237.865 214.962 238.845 214.962 240.145C214.962 241.435 214.587 242.415 213.837 243.085C213.087 243.745 212.042 244.075 210.702 244.075H207.927ZM207.927 242.35H210.702C211.352 242.35 211.847 242.17 212.187 241.81C212.537 241.45 212.712 240.895 212.712 240.145C212.712 239.385 212.537 238.825 212.187 238.465C211.847 238.105 211.352 237.925 210.702 237.925H207.927C207.277 237.925 206.777 238.105 206.427 238.465C206.087 238.825 205.917 239.385 205.917 240.145C205.917 240.895 206.087 241.45 206.427 241.81C206.777 242.17 207.277 242.35 207.927 242.35ZM216.316 247.375V236.275H221.866C223.206 236.275 224.251 236.605 225.001 237.265C225.751 237.925 226.126 238.88 226.126 240.13C226.126 241.39 225.751 242.35 225.001 243.01C224.251 243.67 223.206 244 221.866 244H218.491V247.375H216.316ZM221.866 238H218.491V242.275H221.866C222.516 242.275 223.011 242.1 223.351 241.75C223.701 241.39 223.876 240.85 223.876 240.13C223.876 239.42 223.701 238.89 223.351 238.54C223.011 238.18 222.516 238 221.866 238ZM227.478 244V236.275H237.483C238.363 236.275 239.008 236.495 239.418 236.935C239.828 237.365 240.033 237.935 240.033 238.645V244H237.858V238.915C237.858 238.305 237.548 238 236.928 238H234.843V244H232.668V238H229.653V244H227.478ZM245.574 244.075C244.234 244.075 243.189 243.745 242.439 243.085C241.689 242.415 241.314 241.435 241.314 240.145C241.314 238.845 241.689 237.865 242.439 237.205C243.189 236.535 244.234 236.2 245.574 236.2H249.324C250.204 236.2 250.874 236.41 251.334 236.83C251.804 237.24 252.039 237.83 252.039 238.6C252.039 240.17 251.134 240.955 249.324 240.955H243.654C243.864 241.885 244.504 242.35 245.574 242.35H251.649V244.075H245.574ZM245.574 237.925C244.544 237.925 243.909 238.36 243.669 239.23H249.219C249.419 239.23 249.574 239.17 249.684 239.05C249.804 238.93 249.864 238.765 249.864 238.555C249.864 238.135 249.649 237.925 249.219 237.925H245.574ZM253.391 244V236.275H260.126C261.006 236.275 261.646 236.495 262.046 236.935C262.456 237.365 262.661 237.935 262.661 238.645V244H260.486V238.9C260.486 238.3 260.186 238 259.586 238H255.566V244H253.391ZM268.251 244C267.381 244 266.741 243.785 266.331 243.355C265.921 242.915 265.716 242.34 265.716 241.63V238H263.481V236.275H265.716V233.905H267.891V236.275H271.101V238H267.891V241.36C267.891 241.97 268.191 242.275 268.791 242.275H271.521V244H268.251ZM277.628 244.075V242.35H284.978C285.398 242.35 285.608 242.115 285.608 241.645C285.608 241.185 285.398 240.955 284.978 240.955H280.223C279.333 240.955 278.658 240.755 278.198 240.355C277.738 239.945 277.508 239.36 277.508 238.6C277.508 237.83 277.738 237.24 278.198 236.83C278.668 236.41 279.343 236.2 280.223 236.2H287.063V237.925H280.328C279.898 237.925 279.683 238.135 279.683 238.555C279.683 238.765 279.743 238.93 279.863 239.05C279.983 239.17 280.138 239.23 280.328 239.23H285.368C286.148 239.23 286.743 239.435 287.153 239.845C287.573 240.245 287.783 240.83 287.783 241.6C287.783 242.38 287.573 242.99 287.153 243.43C286.733 243.86 286.138 244.075 285.368 244.075H277.628ZM293.02 244.075C291.68 244.075 290.635 243.745 289.885 243.085C289.135 242.415 288.76 241.435 288.76 240.145C288.76 238.845 289.135 237.865 289.885 237.205C290.635 236.535 291.68 236.2 293.02 236.2H295.795C297.135 236.2 298.18 236.535 298.93 237.205C299.68 237.865 300.055 238.845 300.055 240.145C300.055 241.435 299.68 242.415 298.93 243.085C298.18 243.745 297.135 244.075 295.795 244.075H293.02ZM293.02 242.35H295.795C296.445 242.35 296.94 242.17 297.28 241.81C297.63 241.45 297.805 240.895 297.805 240.145C297.805 239.385 297.63 238.825 297.28 238.465C296.94 238.105 296.445 237.925 295.795 237.925H293.02C292.37 237.925 291.87 238.105 291.52 238.465C291.18 238.825 291.01 239.385 291.01 240.145C291.01 240.895 291.18 241.45 291.52 241.81C291.87 242.17 292.37 242.35 293.02 242.35ZM303.868 244C302.988 244 302.343 243.78 301.933 243.34C301.533 242.9 301.333 242.33 301.333 241.63V236.275H303.508V241.375C303.508 241.975 303.808 242.275 304.408 242.275H307.528C308.128 242.275 308.428 241.975 308.428 241.375V236.275H310.603V241.63C310.603 242.33 310.398 242.9 309.988 243.34C309.588 243.78 308.948 244 308.068 244H303.868ZM312.175 244V236.275H318.085C318.955 236.275 319.595 236.495 320.005 236.935C320.415 237.365 320.62 237.935 320.62 238.645V240.25H318.415V238.915C318.415 238.315 318.115 238.015 317.515 238.015H314.38V244H312.175ZM326.067 244.075C324.727 244.075 323.682 243.745 322.932 243.085C322.182 242.415 321.807 241.435 321.807 240.145C321.807 238.845 322.182 237.865 322.932 237.205C323.682 236.535 324.727 236.2 326.067 236.2H331.092V237.925H326.067C325.417 237.925 324.917 238.105 324.567 238.465C324.227 238.825 324.057 239.385 324.057 240.145C324.057 240.895 324.227 241.45 324.567 241.81C324.917 242.17 325.417 242.35 326.067 242.35H331.242V244.075H326.067ZM336.321 244.075C334.981 244.075 333.936 243.745 333.186 243.085C332.436 242.415 332.061 241.435 332.061 240.145C332.061 238.845 332.436 237.865 333.186 237.205C333.936 236.535 334.981 236.2 336.321 236.2H340.071C340.951 236.2 341.621 236.41 342.081 236.83C342.551 237.24 342.786 237.83 342.786 238.6C342.786 240.17 341.881 240.955 340.071 240.955H334.401C334.611 241.885 335.251 242.35 336.321 242.35H342.396V244.075H336.321ZM336.321 237.925C335.291 237.925 334.656 238.36 334.416 239.23H339.966C340.166 239.23 340.321 239.17 340.431 239.05C340.551 238.93 340.611 238.765 340.611 238.555C340.611 238.135 340.396 237.925 339.966 237.925H336.321Z" fill="white"/>
</svg>
